# xmcd CD database file
#
# Track frame offsets:
#	150
#	13562
#	31176
#	46205
#	65440
#	83273
#	102356
#	119280
#	135226
#	152927
#	167645
#	183215
#
# Disc length: 2648 seconds
#
# Revision: 0
# Processed by: cddbd v1.5.2PL0 Copyright (c) Steve Scherf et al.
# Submitted via: ACXtractor (MTCDDB.DLL V2003.07.15)
#
DISCID=850a560c
DTITLE=Rodney Vincent - Here for a Good Time
DYEAR=2015
DGENRE=Country
TTITLE0=Here for a Good Time
TTITLE1=I Love You
TTITLE2=Nothing I Can do About it Now
TTITLE3=When You Say Nothing at All
TTITLE4=Hands Across Time
TTITLE5=The Harwood Song
TTITLE6=Buy Me a Rose
TTITLE7=Speak to the Sky
TTITLE8=Garden Party
TTITLE9=There Goes My Heart
TTITLE10=The Girl from Yesterday
TTITLE11=Driving My Life Away
EXTD=ID3G:   2 YEAR: 2015
EXTT0=
EXTT1=
EXTT2=
EXTT3=
EXTT4=
EXTT5=
EXTT6=
EXTT7=
EXTT8=
EXTT9=
EXTT10=
EXTT11=
PLAYORDER=
